PathFileType	4	(X/Y/Z)	G:\TennisProject\Miami_Dimitrov_Sinner_masked_Sports2D\Miami_Dimitrov_Sinner_masked_Sports2D_px_person02.trc
DataRate	CameraRate	NumFrames	NumMarkers	Units	OrigDataRate	OrigDataStartFrame	OrigNumFrames
25	25	13	22	m	25	124	499
Frame#	Time	Hip			RHip			RKnee			RAnkle			RBigToe			RSmallToe			RHeel			LHip			LKnee			LAnkle			LBigToe			LSmallToe			LHeel			Neck			Head			Nose			RShoulder			RElbow			RWrist			LShoulder			LElbow			LWrist		
		X1	Y1	Z1	X2	Y2	Z2	X3	Y3	Z3	X4	Y4	Z4	X5	Y5	Z5	X6	Y6	Z6	X7	Y7	Z7	X8	Y8	Z8	X9	Y9	Z9	X10	Y10	Z10	X11	Y11	Z11	X12	Y12	Z12	X13	Y13	Z13	X14	Y14	Z14	X15	Y15	Z15	X16	Y16	Z16	X17	Y17	Z17	X18	Y18	Z18	X19	Y19	Z19	X20	Y20	Z20	X21	Y21	Z21	X22	Y22	Z22
124	4.96	1327.8665756344658	173.8354093349606	0.0	1322.0832084129052	174.57129789043037	0.0	1319.9578454850384	195.68153265487575	0.0	1317.3224195305206	217.52068381413463	0.0	1317.09140316313	221.98774578873096	0.0	1314.435680383342	221.83926338580952	0.0	1317.5387927641234	220.39055818560814	0.0	1332.7264664501154	174.94163521896397	0.0	1332.5657769929703	195.87169389168508	0.0	1332.3560618762504	217.70217026337048	0.0	1333.2838737435627	221.6054987287458	0.0	1335.6938780817559	221.42302429841752	0.0	1330.4804496461288	220.4521893989238	0.0	1328.868905454473	143.4689753834379	0.0	1329.0472612919148	129.96245216774628	0.0	1328.7890242462715	137.45668995332113	0.0	1319.005295272007	148.95227401421153	0.0	1315.9459096446758	161.68308361573247	0.0	1323.0876751823826	167.65188091359386	0.0	1338.4747299686642	149.20626211850674	0.0	1339.893771859801	162.10867778680193	0.0	1332.7280746371105	167.4587584735134	0.0
125	5.0	1327.8838638422067	173.91463600821794	0.0	1322.0474970802015	174.79097969885333	0.0	1319.8267758415318	195.7278031751657	0.0	1317.2947790659357	217.5353067379416	0.0	1316.9488616574272	222.0485593885403	0.0	1314.3435836952094	221.8496753722774	0.0	1317.582860295625	220.28068558939964	0.0	1332.6979078540162	175.1193732977401	0.0	1332.4921138581692	195.78351732880307	0.0	1332.3695595118015	217.68194316773145	0.0	1333.3859919685997	221.73575556167634	0.0	1335.7228364026137	221.5986725722585	0.0	1330.5072095511478	220.5889732010331	0.0	1328.8081996485516	143.35378929480672	0.0	1328.952306853957	129.89527244644532	0.0	1328.9159854485392	137.32098006181292	0.0	1318.966328722013	148.99897108661915	0.0	1315.8112634018835	161.8277739257477	0.0	1323.1295015765527	167.856139758465	0.0	1338.3790110068312	149.2842284327792	0.0	1339.696769702135	162.2125667233546	0.0	1332.7098400714003	167.64901710843827	0.0
126	5.04	1327.8149307498477	173.9971039957669	0.0	1321.9027068610997	174.98560290638278	0.0	1319.7254048536527	195.7457667874992	0.0	1317.2090925567536	217.49309198930138	0.0	1316.865862619075	222.09157892842583	0.0	1314.2431072510797	221.82974013082088	0.0	1317.6856110472763	220.16146877678776	0.0	1332.5867320578313	175.27275962309332	0.0	1332.3986632385668	195.72371061148044	0.0	1332.299571766442	217.68732401923134	0.0	1333.4134332535778	221.88309231367728	0.0	1335.6880149920576	221.68235631806482	0.0	1330.6224782436752	220.77447877907744	0.0	1328.6547453074725	143.28178968126977	0.0	1328.864574274936	129.72274836135477	0.0	1328.9301282170286	137.2340700347075	0.0	1318.809746580038	149.0573771789982	0.0	1315.726958580699	161.89620901988667	0.0	1323.2227222151262	167.88024209208115	0.0	1338.2192917321252	149.34156556160087	0.0	1339.4095900375528	162.4741285448988	0.0	1332.5830224389892	167.80821094118022	0.0
127	5.08	1327.759255766791	173.93923440966785	0.0	1321.9068813323886	174.90493322697444	0.0	1319.8033734977898	195.78384301436745	0.0	1317.2658284495237	217.55885247488442	0.0	1317.0480315201683	222.08916355110114	0.0	1314.3012142935327	221.80453717841502	0.0	1317.680669376904	220.3095122115908	0.0	1332.5976250514343	175.23437912096884	0.0	1332.5199602944372	195.7778007995265	0.0	1332.2681284219952	217.75625869368727	0.0	1333.3044303757654	221.82439792085074	0.0	1335.6255875244005	221.47591516277544	0.0	1330.6512951985583	220.7501092070649	0.0	1328.6927640550455	143.39243295971607	0.0	1328.8985089184862	129.67105537268006	0.0	1328.7934593433856	137.33508625538212	0.0	1318.8117984821424	149.0587328889599	0.0	1315.9097804625808	161.7083633087509	0.0	1323.2153167588517	167.56076606658704	0.0	1338.302320675299	149.3272938431662	0.0	1339.5089735369495	162.4480309152809	0.0	1332.52663200687	167.5633355440693	0.0
128	5.12	1327.7626489019158	173.89708266194165	0.0	1322.0422008187393	174.81995231776787	0.0	1319.923296361253	195.8343831167429	0.0	1317.3459582158662	217.64573648878596	0.0	1317.141638566492	222.1280560800139	0.0	1314.3812464999528	221.7798636099757	0.0	1317.5770085329723	220.4408693291822	0.0	1332.7207128364523	175.19134396191342	0.0	1332.6396124500484	195.90463678099565	0.0	1332.3494071530884	217.80655531306033	0.0	1333.275031423411	221.7275516420134	0.0	1335.5997642025627	221.32935938969553	0.0	1330.5636587707195	220.60197381765104	0.0	1328.8510503113644	143.51097474068246	0.0	1328.9243248697073	129.76346763413687	0.0	1328.6924207100737	137.4803391276291	0.0	1318.9554802227894	149.0113158060961	0.0	1316.0592926461745	161.57817686811825	0.0	1323.1588361827871	167.3718102619538	0.0	1338.4866880255324	149.25830814846287	0.0	1339.8081646016656	162.21294883948892	0.0	1332.6085242342	167.3013819327664	0.0
129	5.16	1327.7655624276913	173.97498633356017	0.0	1322.0421585076078	174.9245463073578	0.0	1319.924293137683	195.80233989889174	0.0	1317.276336859468	217.57611703134052	0.0	1316.9301724781856	222.1423842207352	0.0	1314.3119496619656	221.72829367095454	0.0	1317.5656742785504	220.23549766681907	0.0	1332.7338597374057	175.2543877251215	0.0	1332.5330367062375	195.93024056863914	0.0	1332.4043186976432	217.7792613936906	0.0	1333.3464140294827	221.7617024111806	0.0	1335.6381534091825	221.50714377325968	0.0	1330.5505885144005	220.5440626305005	0.0	1328.8312748264398	143.4292499017946	0.0	1328.8276717441408	129.8106046561138	0.0	1328.707302559151	137.4674429579896	0.0	1318.9606898776854	148.96335375714787	0.0	1315.926941774248	161.73006634719593	0.0	1323.1310729034462	167.57963650727194	0.0	1338.4387338808401	149.2247646534601	0.0	1339.7789386159393	162.20709721158616	0.0	1332.6767481127772	167.45427543902758	0.0
130	5.2	1327.7609693825245	173.98707681128917	0.0	1321.9199543079085	174.96645171943626	0.0	1319.8704550792324	195.6997671105875	0.0	1317.2143613770672	217.4881246700881	0.0	1316.7748406874482	222.05431614590134	0.0	1314.2432037714163	221.70949432677915	0.0	1317.6779067534517	220.03684626578936	0.0	1332.6243108265899	175.25377025462333	0.0	1332.42025575216	195.85425676084458	0.0	1332.336605010406	217.7629020176311	0.0	1333.3287159223776	221.74432913967232	0.0	1335.729179075359	221.68290246638787	0.0	1330.6340142695142	220.55374444318704	0.0	1328.6831702582897	143.29445455550695	0.0	1328.751992519583	129.76400007290547	0.0	1328.725631436364	137.37275521637181	0.0	1318.8178401068635	148.91908438354153	0.0	1315.7966763739319	161.868887226421	0.0	1323.1297129013656	167.75510629155937	0.0	1338.267863666476	149.27134213730773	0.0	1339.5683687228243	162.4184288886732	0.0	1332.6173329542955	167.69528506195508	0.0
131	5.24	1327.7870301437047	173.85231805904598	0.0	1321.9477678923336	174.80535126641954	0.0	1319.857931358741	195.64752623489213	0.0	1317.3103425236407	217.51859693788435	0.0	1316.9408133910179	221.967543958911	0.0	1314.3515633496968	221.75775939112245	0.0	1317.7267051267465	220.17260587230717	0.0	1332.6214811140412	175.1323197177086	0.0	1332.5284661676887	195.86120038180223	0.0	1332.2926103641844	217.7998563163269	0.0	1333.2275790401181	221.56541138574283	0.0	1335.7786150850977	221.52197375061468	0.0	1330.6109284694917	220.47625469258287	0.0	1328.7092112834619	143.3686473939518	0.0	1328.8428239166983	129.7577381835734	0.0	1328.7145695497913	137.4034315146237	0.0	1318.7887616988855	148.86851430454828	0.0	1315.9459931571803	161.80677230017875	0.0	1323.087415041247	167.6877201546559	0.0	1338.3166222181069	149.34716225331394	0.0	1339.6404479355488	162.50326278182848	0.0	1332.562370956404	167.6326714231014	0.0
132	5.28	1327.8074434891703	173.81650428396762	0.0	1322.0927107798177	174.75048993074464	0.0	1319.871397850939	195.6931884440744	0.0	1317.3487859967593	217.5391241613993	0.0	1317.121085838231	221.98646345999663	0.0	1314.4597360578748	221.76953820732803	0.0	1317.6478209554152	220.32250436486277	0.0	1332.7346547387165	175.1220115850747	0.0	1332.6598826570068	195.95532522079188	0.0	1332.3645692950054	217.8006315052173	0.0	1333.2066107324772	221.51073524251063	0.0	1335.7159350410693	221.32583066210387	0.0	1330.4893764443725	220.4050084919388	0.0	1328.8817481984893	143.53143226737285	0.0	1328.953031338021	129.83675449161544	0.0	1328.8061355666682	137.5231355022604	0.0	1318.903165979898	148.85484473140184	0.0	1316.124210150397	161.7620156034783	0.0	1322.9496523445177	167.81230416599828	0.0	1338.4808967129056	149.39193796236952	0.0	1339.81495314838	162.4867179952892	0.0	1332.6242751996192	167.55541147835643	0.0
133	5.32	1327.7717617143726	173.99958563025973	0.0	1322.0635692752337	174.94475999625706	0.0	1319.8696346641823	195.76463851498775	0.0	1317.1712772707515	217.47724232473774	0.0	1317.0605931112068	222.04147472796507	0.0	1314.3677147829267	221.7087850163277	0.0	1317.5986192964388	220.22200286505745	0.0	1332.7239555634053	175.28500435996693	0.0	1332.6037465294376	195.95994587343682	0.0	1332.3953494813204	217.74513062174347	0.0	1333.2938441992712	221.727586642019	0.0	1335.6194128852185	221.46138681549715	0.0	1330.4640289854024	220.5240260540239	0.0	1328.9128099889838	143.48317335198564	0.0	1328.9235004100067	129.88089620106274	0.0	1329.025632522876	137.51173078419447	0.0	1318.9222352134689	148.9339729997826	0.0	1316.0563185451376	161.84595304174215	0.0	1322.8127562703085	168.27231082673444	0.0	1338.4122305426777	149.40946799438203	0.0	1339.6941910141338	162.63546744622332	0.0	1332.665021462271	167.78846445526585	0.0
134	5.36	1327.7425348478332	174.15075865003297	0.0	1321.91532288853	175.04649320759154	0.0	1319.8649386340974	195.80621641328202	0.0	1317.0402820798176	217.45667321877374	0.0	1317.0058825537499	222.01823452621636	0.0	1314.2500969745677	221.67115766755185	0.0	1317.6655246990667	220.13953354587957	0.0	1332.599083244095	175.3302703169225	0.0	1332.5301197278327	195.88555944225635	0.0	1332.3119476173943	217.73602320780134	0.0	1333.345638064895	221.86298358913513	0.0	1335.5862288609246	221.64631263469747	0.0	1330.5143998604713	220.6555481727604	0.0	1328.8026367709087	143.30957416001908	0.0	1328.8707587131153	129.87073779800488	0.0	1329.1440814043376	137.4021333507627	0.0	1318.8159313479637	149.05912449042253	0.0	1315.9374915233088	161.9395297344949	0.0	1322.7938787881776	168.55022819113412	0.0	1338.2317784635718	149.41213757019702	0.0	1339.4757823091672	162.8385674642205	0.0	1332.5912946537533	168.03455359329476	0.0
135	5.4	1327.7758144823033	174.09464862860298	0.0	1321.9486978764364	174.90971405124125	0.0	1319.8774546183256	195.84805485080628	0.0	1317.1856695132726	217.53352919270293	0.0	1317.1045443294781	221.9715589027883	0.0	1314.3000114856352	221.6821607694426	0.0	1317.7423075820939	220.27542702000153	0.0	1332.599958040555	175.16885735952786	0.0	1332.6049119583358	195.9058903240341	0.0	1332.2719255468887	217.80327030019018	0.0	1333.285976093067	221.72170168440346	0.0	1335.6189172024724	221.5199477010458	0.0	1330.5273534495673	220.58658487479926	0.0	1328.79188002758	143.3006475618572	0.0	1328.9101262437487	129.9300592312405	0.0	1329.0174869646269	137.43058672274145	0.0	1318.808243363283	149.09238032007207	0.0	1315.989327159515	161.96103576783264	0.0	1322.8463234317578	168.34408041137303	0.0	1338.2827983853776	149.36633375905265	0.0	1339.5471537001663	162.7577152386388	0.0	1332.541560489464	167.92157595402762	0.0
136	5.44	1327.7858058499157	173.99849096004507	0.0	1322.0846587078463	174.845667152925	0.0	1319.8719695925474	195.89289234917314	0.0	1317.3681128357089	217.5823444480017	0.0	1317.1121661129964	222.01637932398756	0.0	1314.3608059607122	221.68815767640547	0.0	1317.7470636793569	220.3567576886296	0.0	1332.6960414712757	175.10212825431393	0.0	1332.6353286411222	195.97842642045262	0.0	1332.327175689738	217.84148505865753	0.0	1333.253844657458	221.64344780014574	0.0	1335.6702336304427	221.356577059548	0.0	1330.576415495353	220.51857752124153	0.0	1328.854093682264	143.3956978065333	0.0	1328.931151088806	130.03061298690278	0.0	1328.854262918763	137.5162175993232	0.0	1318.905852105764	149.00757853235908	0.0	1316.0340475463518	161.8933099013338	0.0	1322.8101185760486	168.0752095377614	0.0	1338.4254203132953	149.24973329888593	0.0	1339.7614289399748	162.4953133232887	0.0	1332.588974800336	167.71272263835272	0.0
